<svg width="280" height="60" viewBox="0 0 280 60" xmlns="http://www.w3.org/2000/svg">
  <defs>
    <linearGradient id="logoGrad" x1="0%" y1="0%" x2="100%" y2="0%">
      <stop offset="0%" style="stop-color:#6EC1E4"/>
      <stop offset="100%" style="stop-color:#A8E063"/>
    </linearGradient>
  </defs>
  
  <!-- Ícone médico -->
  <g transform="translate(30, 30)">
    <!-- Círculo de fundo -->
    <circle cx="0" cy="0" r="25" fill="url(#logoGrad)" opacity="0.1"/>
    
    <!-- Símbolo médico -->
    <path d="M-12,-8 C-12,-12 -8,-16 -4,-16 C0,-16 0,-12 0,-8 C0,-12 0,-16 4,-16 C8,-16 12,-12 12,-8 C12,-4 0,8 0,8 C0,8 -12,-4 -12,-8 Z" 
          fill="url(#logoGrad)" opacity="0.8"/>
    
    <!-- Cruz médica -->
    <rect x="-1.5" y="-10" width="3" height="20" fill="#ffffff" rx="1"/>
    <rect x="-8" y="-1.5" width="16" height="3" fill="#ffffff" rx="1"/>
  </g>
  
  <!-- Texto -->
  <g transform="translate(70, 20)">
    <text x="0" y="0" font-family="Arial, sans-serif" font-size="18" font-weight="bold" fill="#2c3e50">
      Dra. Marcela Lorenzo
    </text>
    <text x="0" y="18" font-family="Arial, sans-serif" font-size="10" fill="#6EC1E4" font-weight="500">
      FONOAUDIÓLOGA • MOTRICIDADE OROFACIAL
    </text>
  </g>
</svg>
