<!-- Logo SVG para Dra. Marcela Magalhães Queiroz Lorenzo Leiro -->
<svg width="220" height="80" viewBox="0 0 220 80" fill="none" xmlns="http://www.w3.org/2000/svg">
  <defs>
    <linearGradient id="grad1" x1="0" y1="0" x2="1" y2="1">
      <stop offset="0%" stop-color="#6EC1E4"/>
      <stop offset="100%" stop-color="#A8E063"/>
    </linearGradient>
  </defs>
  <!-- Silhueta de rosto adulto -->
  <path d="M40 60 Q35 40 50 30 Q65 20 80 35 Q95 50 80 65 Q65 80 50 70 Q45 67 40 60" stroke="url(#grad1)" stroke-width="3" fill="none"/>
  <!-- Silhueta de rosto infantil -->
  <path d="M60 55 Q58 48 65 45 Q72 42 78 48 Q84 54 78 60 Q72 66 65 62 Q62 60 60 55" stroke="#FFD700" stroke-width="2" fill="none"/>
  <!-- Balão de fala estilizado -->
  <ellipse cx="110" cy="50" rx="18" ry="10" fill="#6EC1E4" fill-opacity="0.2"/>
  <path d="M110 60 Q112 65 118 62" stroke="#A8E063" stroke-width="2" fill="none"/>
  <!-- Nome -->
  <text x="130" y="45" font-family="'Segoe UI', Arial, sans-serif" font-size="18" fill="#333" font-weight="bold">Dra. Marcela Lorenzo</text>
  <text x="130" y="65" font-family="'Segoe UI', Arial, sans-serif" font-size="12" fill="#6EC1E4">Fonoaudióloga & Motricidade Orofacial</text>
</svg>
